<svg xmlns="http://www.w3.org/2000/svg" width="720" height="320" viewBox="0 0 720 320" font-family="system-ui,sans-serif" font-size="11">
<rect width="720" height="320" fill="#ffffff"/>
<line x1="56" y1="258.4" x2="520" y2="258.4" stroke="#374151" stroke-width="1.2"/>
<text x="50" y="261.4" text-anchor="end" fill="#666">1×</text>
<line x1="56" y1="213.9" x2="520" y2="213.9" stroke="#ececec" stroke-width="1"/>
<text x="50" y="216.9" text-anchor="end" fill="#666">1.5×</text>
<line x1="56" y1="182.3" x2="520" y2="182.3" stroke="#ececec" stroke-width="1"/>
<text x="50" y="185.3" text-anchor="end" fill="#666">2×</text>
<line x1="56" y1="137.8" x2="520" y2="137.8" stroke="#ececec" stroke-width="1"/>
<text x="50" y="140.8" text-anchor="end" fill="#666">3×</text>
<line x1="56" y1="106.2" x2="520" y2="106.2" stroke="#ececec" stroke-width="1"/>
<text x="50" y="109.2" text-anchor="end" fill="#666">4×</text>
<line x1="56" y1="61.7" x2="520" y2="61.7" stroke="#ececec" stroke-width="1"/>
<text x="50" y="64.7" text-anchor="end" fill="#666">6×</text>
<line x1="56" y1="30.1" x2="520" y2="30.1" stroke="#ececec" stroke-width="1"/>
<text x="50" y="33.1" text-anchor="end" fill="#666">8×</text>
<line x1="56.0" y1="20" x2="56.0" y2="270" stroke="#f5f5f5" stroke-width="1"/>
<text x="56.0" y="286" text-anchor="middle" fill="#666">1B</text>
<line x1="124.7" y1="20" x2="124.7" y2="270" stroke="#f5f5f5" stroke-width="1"/>
<text x="124.7" y="286" text-anchor="middle" fill="#666">16B</text>
<line x1="193.5" y1="20" x2="193.5" y2="270" stroke="#f5f5f5" stroke-width="1"/>
<text x="193.5" y="286" text-anchor="middle" fill="#666">256B</text>
<line x1="262.2" y1="20" x2="262.2" y2="270" stroke="#f5f5f5" stroke-width="1"/>
<text x="262.2" y="286" text-anchor="middle" fill="#666">4K</text>
<line x1="331.0" y1="20" x2="331.0" y2="270" stroke="#f5f5f5" stroke-width="1"/>
<text x="331.0" y="286" text-anchor="middle" fill="#666">64K</text>
<line x1="399.7" y1="20" x2="399.7" y2="270" stroke="#f5f5f5" stroke-width="1"/>
<text x="399.7" y="286" text-anchor="middle" fill="#666">1M</text>
<line x1="468.4" y1="20" x2="468.4" y2="270" stroke="#f5f5f5" stroke-width="1"/>
<text x="468.4" y="286" text-anchor="middle" fill="#666">16M</text>
<line x1="520.0" y1="20" x2="520.0" y2="270" stroke="#f5f5f5" stroke-width="1"/>
<text x="520.0" y="286" text-anchor="middle" fill="#666">128M</text>
<text x="288.0" y="312" text-anchor="middle" fill="#333" font-size="12">input size (bytes, log scale)</text>
<text x="14" y="145.0" text-anchor="middle" fill="#333" font-size="12" transform="rotate(-90 14 145.0)">speedup vs core::str::from_utf8</text>
<polyline points="56.0,258.4 73.2,258.4 90.4,258.4 107.6,258.4 124.7,258.4 141.9,258.4 159.1,258.4 176.3,258.4 193.5,258.4 210.7,258.4 227.9,258.4 245.0,258.4 262.2,258.4 279.4,258.4 296.6,258.4 313.8,258.4 331.0,258.4 348.1,258.4 365.3,258.4 382.5,258.4 399.7,258.4 416.9,258.4 434.1,258.4 451.3,258.4 468.4,258.4 485.6,258.4 502.8,258.4 520.0,258.4 537.2,258.4 554.4,258.4" fill="none" stroke="#9ca3af" stroke-width="2.2"/>
<line x1="530" y1="28" x2="548" y2="28" stroke="#9ca3af" stroke-width="2.2"/>
<text x="554" y="32" fill="#333">stdlib (= 1×)</text>
<polyline points="56.0,257.8 73.2,255.2 90.4,247.5 107.6,252.1 124.7,241.7 141.9,246.9 159.1,137.6 176.3,168.9 193.5,201.5 210.7,192.1 227.9,181.2 245.0,182.8 262.2,158.3 279.4,172.8 296.6,184.3 313.8,170.8 331.0,157.6 348.1,155.9 365.3,155.9 382.5,156.5 399.7,202.7 416.9,209.4 434.1,241.4 451.3,242.1 468.4,241.6 485.6,241.6 502.8,240.1 520.0,210.4 537.2,216.4 554.4,220.3" fill="none" stroke="#f59e0b" stroke-width="2.2"/>
<line x1="530" y1="46" x2="548" y2="46" stroke="#f59e0b" stroke-width="2.2"/>
<text x="554" y="50" fill="#333">simdutf8</text>
<polyline points="56.0,112.1 73.2,98.4 90.4,48.7 107.6,30.5 124.7,146.2 141.9,141.7 159.1,172.5 176.3,195.7 193.5,240.6 210.7,237.1 227.9,247.2 245.0,252.1 262.2,256.2 279.4,257.6 296.6,258.1 313.8,257.8 331.0,256.0 348.1,257.2 365.3,256.2 382.5,257.7 399.7,257.8 416.9,256.0 434.1,258.0 451.3,257.9 468.4,257.3 485.6,257.3 502.8,258.3 520.0,257.5 537.2,257.0 554.4,257.5" fill="none" stroke="#2563eb" stroke-width="2.2"/>
<line x1="530" y1="64" x2="548" y2="64" stroke="#2563eb" stroke-width="2.2"/>
<text x="554" y="68" fill="#333">smoothutf8 (default)</text>
<polyline points="56.0,105.6 73.2,90.6 90.4,41.8 107.6,112.6 124.7,186.5 141.9,152.3 159.1,126.7 176.3,188.9 193.5,215.2 210.7,201.9 227.9,187.9 245.0,186.0 262.2,165.2 279.4,173.6 296.6,184.5 313.8,168.4 331.0,156.3 348.1,154.8 365.3,153.4 382.5,153.7 399.7,203.5 416.9,209.7 434.1,242.0 451.3,241.8 468.4,241.9 485.6,241.4 502.8,239.6 520.0,211.4 537.2,216.0 554.4,219.3" fill="none" stroke="#dc2626" stroke-width="2.2"/>
<line x1="530" y1="82" x2="548" y2="82" stroke="#dc2626" stroke-width="2.2"/>
<text x="554" y="86" fill="#333">smoothutf8 (+simdutf8)</text>
</svg>
