<svg xmlns="http://www.w3.org/2000/svg" width="720" height="380" viewBox="0 0 720 380" font-family="system-ui,sans-serif" font-size="11">
<rect width="720" height="380" fill="#ffffff"/>
<line x1="56" y1="325.9" x2="520" y2="325.9" stroke="#f0f0f0" stroke-width="1"/>
<text x="50" y="328.9" text-anchor="end" fill="#666">0.2</text>
<line x1="56" y1="279.1" x2="520" y2="279.1" stroke="#f0f0f0" stroke-width="1"/>
<text x="50" y="282.1" text-anchor="end" fill="#666">0.5</text>
<line x1="56" y1="243.6" x2="520" y2="243.6" stroke="#d4d4d4" stroke-width="1"/>
<text x="50" y="246.6" text-anchor="end" fill="#666">1</text>
<line x1="56" y1="208.1" x2="520" y2="208.1" stroke="#f0f0f0" stroke-width="1"/>
<text x="50" y="211.1" text-anchor="end" fill="#666">2</text>
<line x1="56" y1="161.3" x2="520" y2="161.3" stroke="#f0f0f0" stroke-width="1"/>
<text x="50" y="164.3" text-anchor="end" fill="#666">5</text>
<line x1="56" y1="125.8" x2="520" y2="125.8" stroke="#d4d4d4" stroke-width="1"/>
<text x="50" y="128.8" text-anchor="end" fill="#666">10</text>
<line x1="56" y1="90.4" x2="520" y2="90.4" stroke="#f0f0f0" stroke-width="1"/>
<text x="50" y="93.4" text-anchor="end" fill="#666">20</text>
<line x1="56" y1="43.5" x2="520" y2="43.5" stroke="#f0f0f0" stroke-width="1"/>
<text x="50" y="46.5" text-anchor="end" fill="#666">50</text>
<line x1="56.0" y1="20" x2="56.0" y2="330" stroke="#f5f5f5" stroke-width="1"/>
<text x="56.0" y="346" text-anchor="middle" fill="#666">1B</text>
<line x1="124.7" y1="20" x2="124.7" y2="330" stroke="#f5f5f5" stroke-width="1"/>
<text x="124.7" y="346" text-anchor="middle" fill="#666">16B</text>
<line x1="193.5" y1="20" x2="193.5" y2="330" stroke="#f5f5f5" stroke-width="1"/>
<text x="193.5" y="346" text-anchor="middle" fill="#666">256B</text>
<line x1="262.2" y1="20" x2="262.2" y2="330" stroke="#f5f5f5" stroke-width="1"/>
<text x="262.2" y="346" text-anchor="middle" fill="#666">4K</text>
<line x1="331.0" y1="20" x2="331.0" y2="330" stroke="#f5f5f5" stroke-width="1"/>
<text x="331.0" y="346" text-anchor="middle" fill="#666">64K</text>
<line x1="399.7" y1="20" x2="399.7" y2="330" stroke="#f5f5f5" stroke-width="1"/>
<text x="399.7" y="346" text-anchor="middle" fill="#666">1M</text>
<line x1="468.4" y1="20" x2="468.4" y2="330" stroke="#f5f5f5" stroke-width="1"/>
<text x="468.4" y="346" text-anchor="middle" fill="#666">16M</text>
<line x1="520.0" y1="20" x2="520.0" y2="330" stroke="#f5f5f5" stroke-width="1"/>
<text x="520.0" y="346" text-anchor="middle" fill="#666">128M</text>
<text x="288.0" y="372" text-anchor="middle" fill="#333" font-size="12">input size (bytes, log scale)</text>
<text x="14" y="175.0" text-anchor="middle" fill="#333" font-size="12" transform="rotate(-90 14 175.0)">throughput (GiB/s, log scale)</text>
<polyline points="56.0,317.9 73.2,289.8 90.4,276.3 107.6,248.7 124.7,188.2 141.9,168.9 159.1,152.8 176.3,119.8 193.5,92.5 210.7,80.0 227.9,73.0 245.0,68.4 262.2,73.7 279.4,68.8 296.6,66.2 313.8,64.9 331.0,76.7 348.1,76.5 365.3,76.7 382.5,76.6 399.7,76.4 416.9,83.6 434.1,91.2 451.3,91.3 468.4,91.4 485.6,91.4 502.8,93.1 520.0,120.1 537.2,133.4 554.4,136.6" fill="none" stroke="#9ca3af" stroke-width="2.2"/>
<line x1="530" y1="28" x2="548" y2="28" stroke="#9ca3af" stroke-width="2.2"/>
<text x="554" y="32" fill="#333">stdlib</text>
<polyline points="56.0,318.6 73.2,289.2 90.4,278.7 107.6,247.3 124.7,183.9 141.9,165.2 159.1,98.4 176.3,79.4 193.5,66.3 210.7,50.4 227.9,38.6 245.0,34.0 262.2,30.7 279.4,29.3 296.6,31.9 313.8,29.8 331.0,50.5 348.1,50.4 365.3,50.4 382.5,50.8 399.7,50.8 416.9,59.9 434.1,83.3 451.3,83.5 468.4,83.7 485.6,83.5 502.8,84.0 520.0,98.3 537.2,114.3 554.4,119.5" fill="none" stroke="#f59e0b" stroke-width="2.2"/>
<line x1="530" y1="46" x2="548" y2="46" stroke="#f59e0b" stroke-width="2.2"/>
<text x="554" y="50" fill="#333">simdutf8</text>
<polyline points="56.0,263.4 73.2,227.9 90.4,193.6 107.6,157.1 124.7,136.5 141.9,115.2 159.1,112.8 176.3,90.0 193.5,85.0 210.7,70.4 227.9,66.9 245.0,65.1 262.2,72.8 279.4,68.3 296.6,66.0 313.8,65.0 331.0,75.5 348.1,76.0 365.3,75.7 382.5,76.0 399.7,76.1 416.9,82.6 434.1,90.7 451.3,91.1 468.4,91.3 485.6,90.9 502.8,92.6 520.0,119.4 537.2,132.8 554.4,136.6" fill="none" stroke="#2563eb" stroke-width="2.2"/>
<line x1="530" y1="64" x2="548" y2="64" stroke="#2563eb" stroke-width="2.2"/>
<text x="554" y="68" fill="#333">smoothutf8 (default)</text>
<polyline points="56.0,290.1 73.2,254.9 90.4,219.3 107.6,218.7 124.7,184.2 141.9,143.7 159.1,110.9 176.3,83.7 193.5,69.3 210.7,52.5 227.9,40.4 245.0,34.7 262.2,31.4 279.4,29.5 296.6,32.0 313.8,29.9 331.0,50.6 348.1,50.5 365.3,50.9 382.5,50.8 399.7,50.8 416.9,59.8 434.1,83.1 451.3,83.4 468.4,83.5 485.6,83.5 502.8,83.8 520.0,98.1 537.2,113.9 554.4,119.3" fill="none" stroke="#dc2626" stroke-width="2.2"/>
<line x1="530" y1="82" x2="548" y2="82" stroke="#dc2626" stroke-width="2.2"/>
<text x="554" y="86" fill="#333">smoothutf8 (+simdutf8)</text>
</svg>
