<svg xmlns="http://www.w3.org/2000/svg" width="720" height="380" viewBox="0 0 720 380" font-family="system-ui,sans-serif" font-size="11">
<rect width="720" height="380" fill="#ffffff"/>
<line x1="56" y1="326.0" x2="520" y2="326.0" stroke="#f0f0f0" stroke-width="1"/>
<text x="50" y="329.0" text-anchor="end" fill="#666">0.2</text>
<line x1="56" y1="280.9" x2="520" y2="280.9" stroke="#f0f0f0" stroke-width="1"/>
<text x="50" y="283.9" text-anchor="end" fill="#666">0.5</text>
<line x1="56" y1="246.8" x2="520" y2="246.8" stroke="#d4d4d4" stroke-width="1"/>
<text x="50" y="249.8" text-anchor="end" fill="#666">1</text>
<line x1="56" y1="212.6" x2="520" y2="212.6" stroke="#f0f0f0" stroke-width="1"/>
<text x="50" y="215.6" text-anchor="end" fill="#666">2</text>
<line x1="56" y1="167.5" x2="520" y2="167.5" stroke="#f0f0f0" stroke-width="1"/>
<text x="50" y="170.5" text-anchor="end" fill="#666">5</text>
<line x1="56" y1="133.4" x2="520" y2="133.4" stroke="#d4d4d4" stroke-width="1"/>
<text x="50" y="136.4" text-anchor="end" fill="#666">10</text>
<line x1="56" y1="99.3" x2="520" y2="99.3" stroke="#f0f0f0" stroke-width="1"/>
<text x="50" y="102.3" text-anchor="end" fill="#666">20</text>
<line x1="56" y1="54.2" x2="520" y2="54.2" stroke="#f0f0f0" stroke-width="1"/>
<text x="50" y="57.2" text-anchor="end" fill="#666">50</text>
<line x1="56" y1="20.0" x2="520" y2="20.0" stroke="#d4d4d4" stroke-width="1"/>
<text x="50" y="23.0" text-anchor="end" fill="#666">100</text>
<line x1="56.0" y1="20" x2="56.0" y2="330" stroke="#f5f5f5" stroke-width="1"/>
<text x="56.0" y="346" text-anchor="middle" fill="#666">1B</text>
<line x1="124.7" y1="20" x2="124.7" y2="330" stroke="#f5f5f5" stroke-width="1"/>
<text x="124.7" y="346" text-anchor="middle" fill="#666">16B</text>
<line x1="193.5" y1="20" x2="193.5" y2="330" stroke="#f5f5f5" stroke-width="1"/>
<text x="193.5" y="346" text-anchor="middle" fill="#666">256B</text>
<line x1="262.2" y1="20" x2="262.2" y2="330" stroke="#f5f5f5" stroke-width="1"/>
<text x="262.2" y="346" text-anchor="middle" fill="#666">4K</text>
<line x1="331.0" y1="20" x2="331.0" y2="330" stroke="#f5f5f5" stroke-width="1"/>
<text x="331.0" y="346" text-anchor="middle" fill="#666">64K</text>
<line x1="399.7" y1="20" x2="399.7" y2="330" stroke="#f5f5f5" stroke-width="1"/>
<text x="399.7" y="346" text-anchor="middle" fill="#666">1M</text>
<line x1="468.4" y1="20" x2="468.4" y2="330" stroke="#f5f5f5" stroke-width="1"/>
<text x="468.4" y="346" text-anchor="middle" fill="#666">16M</text>
<line x1="520.0" y1="20" x2="520.0" y2="330" stroke="#f5f5f5" stroke-width="1"/>
<text x="520.0" y="346" text-anchor="middle" fill="#666">128M</text>
<text x="288.0" y="372" text-anchor="middle" fill="#333" font-size="12">input size (bytes, log scale)</text>
<text x="14" y="175.0" text-anchor="middle" fill="#333" font-size="12" transform="rotate(-90 14 175.0)">throughput (GiB/s, log scale)</text>
<polyline points="56.0,319.0 73.2,291.8 90.4,279.9 107.6,255.7 124.7,195.2 141.9,175.1 159.1,159.4 176.3,127.5 193.5,100.4 210.7,89.4 227.9,82.5 245.0,78.2 262.2,83.2 279.4,78.7 296.6,76.2 313.8,74.9 331.0,86.5 348.1,86.2 365.3,86.1 382.5,86.1 399.7,85.9 416.9,92.1 434.1,99.9 451.3,100.1 468.4,100.3 485.6,100.3 502.8,101.6 520.0,127.4 537.2,139.8 554.4,143.6" fill="none" stroke="#9ca3af" stroke-width="2.2"/>
<line x1="530" y1="28" x2="548" y2="28" stroke="#9ca3af" stroke-width="2.2"/>
<text x="554" y="32" fill="#333">stdlib</text>
<polyline points="56.0,319.0 73.2,291.5 90.4,281.8 107.6,256.9 124.7,191.2 141.9,171.9 159.1,101.0 176.3,79.2 193.5,67.5 210.7,46.0 227.9,43.2 245.0,29.2 262.2,39.4 279.4,39.0 296.6,33.7 313.8,31.3 331.0,38.1 348.1,38.6 365.3,38.5 382.5,38.6 399.7,61.4 416.9,71.0 434.1,92.0 451.3,92.6 468.4,92.7 485.6,92.7 502.8,93.1 520.0,106.7 537.2,121.7 554.4,127.1" fill="none" stroke="#f59e0b" stroke-width="2.2"/>
<line x1="530" y1="46" x2="548" y2="46" stroke="#f59e0b" stroke-width="2.2"/>
<text x="554" y="50" fill="#333">simdutf8</text>
<polyline points="56.0,284.2 73.2,249.9 90.4,215.9 107.6,176.7 124.7,152.0 141.9,127.5 159.1,116.0 176.3,100.9 193.5,104.3 210.7,82.0 227.9,77.7 245.0,75.5 262.2,82.2 279.4,78.1 296.6,76.0 313.8,74.6 331.0,85.6 348.1,85.7 365.3,85.3 382.5,85.6 399.7,85.4 416.9,90.9 434.1,99.7 451.3,100.0 468.4,100.2 485.6,99.8 502.8,101.1 520.0,126.8 537.2,140.1 554.4,143.4" fill="none" stroke="#2563eb" stroke-width="2.2"/>
<line x1="530" y1="64" x2="548" y2="64" stroke="#2563eb" stroke-width="2.2"/>
<text x="554" y="68" fill="#333">smoothutf8 (default)</text>
<polyline points="56.0,284.1 73.2,250.1 90.4,215.9 107.6,177.4 124.7,153.2 141.9,117.7 159.1,93.5 176.3,79.4 193.5,66.6 210.7,45.1 227.9,43.1 245.0,29.0 262.2,39.8 279.4,39.1 296.6,33.7 313.8,31.0 331.0,38.3 348.1,38.8 365.3,38.4 382.5,38.6 399.7,61.4 416.9,71.1 434.1,92.0 451.3,92.8 468.4,92.8 485.6,92.7 502.8,93.1 520.0,106.4 537.2,121.9 554.4,127.1" fill="none" stroke="#dc2626" stroke-width="2.2"/>
<line x1="530" y1="82" x2="548" y2="82" stroke="#dc2626" stroke-width="2.2"/>
<text x="554" y="86" fill="#333">smoothutf8 (+simdutf8)</text>
</svg>
