<svg xmlns="http://www.w3.org/2000/svg" width="720" height="320" viewBox="0 0 720 320" font-family="system-ui,sans-serif" font-size="11">
<rect width="720" height="320" fill="#ffffff"/>
<line x1="56" y1="245.6" x2="520" y2="245.6" stroke="#374151" stroke-width="1.2"/>
<text x="50" y="248.6" text-anchor="end" fill="#666">1×</text>
<line x1="56" y1="191.8" x2="520" y2="191.8" stroke="#ececec" stroke-width="1"/>
<text x="50" y="194.8" text-anchor="end" fill="#666">1.5×</text>
<line x1="56" y1="153.6" x2="520" y2="153.6" stroke="#ececec" stroke-width="1"/>
<text x="50" y="156.6" text-anchor="end" fill="#666">2×</text>
<line x1="56" y1="99.8" x2="520" y2="99.8" stroke="#ececec" stroke-width="1"/>
<text x="50" y="102.8" text-anchor="end" fill="#666">3×</text>
<line x1="56" y1="61.7" x2="520" y2="61.7" stroke="#ececec" stroke-width="1"/>
<text x="50" y="64.7" text-anchor="end" fill="#666">4×</text>
<line x1="56.0" y1="20" x2="56.0" y2="270" stroke="#f5f5f5" stroke-width="1"/>
<text x="56.0" y="286" text-anchor="middle" fill="#666">1B</text>
<line x1="124.7" y1="20" x2="124.7" y2="270" stroke="#f5f5f5" stroke-width="1"/>
<text x="124.7" y="286" text-anchor="middle" fill="#666">16B</text>
<line x1="193.5" y1="20" x2="193.5" y2="270" stroke="#f5f5f5" stroke-width="1"/>
<text x="193.5" y="286" text-anchor="middle" fill="#666">256B</text>
<line x1="262.2" y1="20" x2="262.2" y2="270" stroke="#f5f5f5" stroke-width="1"/>
<text x="262.2" y="286" text-anchor="middle" fill="#666">4K</text>
<line x1="331.0" y1="20" x2="331.0" y2="270" stroke="#f5f5f5" stroke-width="1"/>
<text x="331.0" y="286" text-anchor="middle" fill="#666">64K</text>
<line x1="399.7" y1="20" x2="399.7" y2="270" stroke="#f5f5f5" stroke-width="1"/>
<text x="399.7" y="286" text-anchor="middle" fill="#666">1M</text>
<line x1="468.4" y1="20" x2="468.4" y2="270" stroke="#f5f5f5" stroke-width="1"/>
<text x="468.4" y="286" text-anchor="middle" fill="#666">16M</text>
<line x1="520.0" y1="20" x2="520.0" y2="270" stroke="#f5f5f5" stroke-width="1"/>
<text x="520.0" y="286" text-anchor="middle" fill="#666">128M</text>
<text x="288.0" y="312" text-anchor="middle" fill="#333" font-size="12">input size (bytes, log scale)</text>
<text x="14" y="145.0" text-anchor="middle" fill="#333" font-size="12" transform="rotate(-90 14 145.0)">speedup vs core::str::from_utf8</text>
<polyline points="56.0,245.6 73.2,245.6 90.4,245.6 107.6,245.6 124.7,245.6 141.9,245.6 159.1,245.6 176.3,245.6 193.5,245.6 210.7,245.6 227.9,245.6 245.0,245.6 262.2,245.6 279.4,245.6 296.6,245.6 313.8,245.6 331.0,245.6 348.1,245.6 365.3,245.6 382.5,245.6 399.7,245.6 416.9,245.6 434.1,245.6 451.3,245.6 468.4,245.6 485.6,245.6 502.8,245.6 520.0,245.6 537.2,245.6 554.4,245.6" fill="none" stroke="#9ca3af" stroke-width="2.2"/>
<line x1="530" y1="28" x2="548" y2="28" stroke="#9ca3af" stroke-width="2.2"/>
<text x="554" y="32" fill="#333">stdlib (= 1×)</text>
<polyline points="56.0,245.7 73.2,244.7 90.4,250.9 107.6,248.8 124.7,234.8 141.9,237.1 159.1,88.2 176.3,115.6 193.5,156.9 210.7,128.7 227.9,139.5 245.0,113.6 262.2,127.4 279.4,138.5 296.6,131.1 313.8,128.3 331.0,115.4 348.1,117.1 365.3,117.3 382.5,117.4 399.7,179.5 416.9,188.8 434.1,224.2 451.3,225.2 468.4,225.0 485.6,225.0 502.8,222.7 520.0,190.0 537.2,196.9 554.4,201.2" fill="none" stroke="#f59e0b" stroke-width="2.2"/>
<line x1="530" y1="46" x2="548" y2="46" stroke="#f59e0b" stroke-width="2.2"/>
<text x="554" y="50" fill="#333">simdutf8</text>
<polyline points="56.0,151.9 73.2,132.7 90.4,73.3 107.6,32.6 124.7,129.1 141.9,117.3 159.1,128.7 176.3,174.1 193.5,256.0 210.7,225.6 227.9,232.6 245.0,238.4 262.2,242.9 279.4,243.8 296.6,245.0 313.8,244.8 331.0,243.3 348.1,244.3 365.3,243.5 382.5,244.0 399.7,244.1 416.9,242.3 434.1,245.2 451.3,245.2 468.4,245.2 485.6,244.2 502.8,244.2 520.0,244.2 537.2,246.4 554.4,245.1" fill="none" stroke="#2563eb" stroke-width="2.2"/>
<line x1="530" y1="64" x2="548" y2="64" stroke="#2563eb" stroke-width="2.2"/>
<text x="554" y="68" fill="#333">smoothutf8 (default)</text>
<polyline points="56.0,151.5 73.2,133.3 90.4,73.1 107.6,34.5 124.7,132.4 141.9,90.9 159.1,68.2 176.3,116.1 193.5,154.5 210.7,126.2 227.9,139.3 245.0,112.9 262.2,128.5 279.4,138.6 296.6,131.1 313.8,127.5 331.0,116.0 348.1,117.8 365.3,117.0 382.5,117.5 399.7,179.5 416.9,189.1 434.1,224.3 451.3,225.8 468.4,225.2 485.6,225.0 502.8,222.7 520.0,189.0 537.2,197.2 554.4,201.1" fill="none" stroke="#dc2626" stroke-width="2.2"/>
<line x1="530" y1="82" x2="548" y2="82" stroke="#dc2626" stroke-width="2.2"/>
<text x="554" y="86" fill="#333">smoothutf8 (+simdutf8)</text>
</svg>
