<svg xmlns="http://www.w3.org/2000/svg" width="720" height="380" viewBox="0 0 720 380" font-family="system-ui,sans-serif" font-size="11">
<rect width="720" height="380" fill="#ffffff"/>
<line x1="56" y1="326.3" x2="520" y2="326.3" stroke="#f0f0f0" stroke-width="1"/>
<text x="50" y="329.3" text-anchor="end" fill="#666">0.2</text>
<line x1="56" y1="280.4" x2="520" y2="280.4" stroke="#f0f0f0" stroke-width="1"/>
<text x="50" y="283.4" text-anchor="end" fill="#666">0.5</text>
<line x1="56" y1="245.6" x2="520" y2="245.6" stroke="#d4d4d4" stroke-width="1"/>
<text x="50" y="248.6" text-anchor="end" fill="#666">1</text>
<line x1="56" y1="210.8" x2="520" y2="210.8" stroke="#f0f0f0" stroke-width="1"/>
<text x="50" y="213.8" text-anchor="end" fill="#666">2</text>
<line x1="56" y1="164.8" x2="520" y2="164.8" stroke="#f0f0f0" stroke-width="1"/>
<text x="50" y="167.8" text-anchor="end" fill="#666">5</text>
<line x1="56" y1="130.0" x2="520" y2="130.0" stroke="#d4d4d4" stroke-width="1"/>
<text x="50" y="133.0" text-anchor="end" fill="#666">10</text>
<line x1="56" y1="95.2" x2="520" y2="95.2" stroke="#f0f0f0" stroke-width="1"/>
<text x="50" y="98.2" text-anchor="end" fill="#666">20</text>
<line x1="56" y1="49.2" x2="520" y2="49.2" stroke="#f0f0f0" stroke-width="1"/>
<text x="50" y="52.2" text-anchor="end" fill="#666">50</text>
<line x1="56.0" y1="20" x2="56.0" y2="330" stroke="#f5f5f5" stroke-width="1"/>
<text x="56.0" y="346" text-anchor="middle" fill="#666">1B</text>
<line x1="124.7" y1="20" x2="124.7" y2="330" stroke="#f5f5f5" stroke-width="1"/>
<text x="124.7" y="346" text-anchor="middle" fill="#666">16B</text>
<line x1="193.5" y1="20" x2="193.5" y2="330" stroke="#f5f5f5" stroke-width="1"/>
<text x="193.5" y="346" text-anchor="middle" fill="#666">256B</text>
<line x1="262.2" y1="20" x2="262.2" y2="330" stroke="#f5f5f5" stroke-width="1"/>
<text x="262.2" y="346" text-anchor="middle" fill="#666">4K</text>
<line x1="331.0" y1="20" x2="331.0" y2="330" stroke="#f5f5f5" stroke-width="1"/>
<text x="331.0" y="346" text-anchor="middle" fill="#666">64K</text>
<line x1="399.7" y1="20" x2="399.7" y2="330" stroke="#f5f5f5" stroke-width="1"/>
<text x="399.7" y="346" text-anchor="middle" fill="#666">1M</text>
<line x1="468.4" y1="20" x2="468.4" y2="330" stroke="#f5f5f5" stroke-width="1"/>
<text x="468.4" y="346" text-anchor="middle" fill="#666">16M</text>
<line x1="520.0" y1="20" x2="520.0" y2="330" stroke="#f5f5f5" stroke-width="1"/>
<text x="520.0" y="346" text-anchor="middle" fill="#666">128M</text>
<text x="288.0" y="372" text-anchor="middle" fill="#333" font-size="12">input size (bytes, log scale)</text>
<text x="14" y="175.0" text-anchor="middle" fill="#333" font-size="12" transform="rotate(-90 14 175.0)">throughput (GiB/s, log scale)</text>
<polyline points="56.0,318.8 73.2,290.6 90.4,278.3 107.6,251.2 124.7,192.1 141.9,172.1 159.1,156.4 176.3,123.8 193.5,96.6 210.7,85.3 227.9,77.3 245.0,73.4 262.2,78.8 279.4,74.0 296.6,71.6 313.8,70.3 331.0,81.7 348.1,81.5 365.3,81.8 382.5,81.5 399.7,81.5 416.9,88.9 434.1,95.9 451.3,96.1 468.4,96.2 485.6,96.2 502.8,97.3 520.0,124.2 537.2,137.7 554.4,141.5" fill="none" stroke="#9ca3af" stroke-width="2.2"/>
<line x1="530" y1="28" x2="548" y2="28" stroke="#9ca3af" stroke-width="2.2"/>
<text x="554" y="32" fill="#333">stdlib</text>
<polyline points="56.0,318.5 73.2,289.1 90.4,273.3 107.6,248.3 124.7,184.4 141.9,166.8 159.1,101.2 176.3,82.9 193.5,70.6 210.7,55.0 227.9,42.0 245.0,38.8 262.2,33.0 279.4,34.8 296.6,37.7 313.8,30.2 331.0,35.6 348.1,34.7 365.3,34.9 382.5,34.9 399.7,56.0 416.9,66.5 434.1,88.1 451.3,88.6 468.4,88.5 485.6,88.5 502.8,88.9 520.0,102.3 537.2,118.5 554.4,124.1" fill="none" stroke="#f59e0b" stroke-width="2.2"/>
<line x1="530" y1="46" x2="548" y2="46" stroke="#f59e0b" stroke-width="2.2"/>
<text x="554" y="50" fill="#333">simdutf8</text>
<polyline points="56.0,251.9 73.2,217.5 90.4,182.4 107.6,147.0 124.7,140.8 141.9,118.7 159.1,117.1 176.3,95.1 193.5,88.5 210.7,75.6 227.9,72.2 245.0,70.4 262.2,77.8 279.4,73.6 296.6,71.4 313.8,70.0 331.0,80.6 348.1,81.0 365.3,80.8 382.5,81.2 399.7,81.2 416.9,87.8 434.1,95.7 451.3,95.8 468.4,95.7 485.6,95.7 502.8,97.3 520.0,123.8 537.2,137.1 554.4,141.1" fill="none" stroke="#2563eb" stroke-width="2.2"/>
<line x1="530" y1="64" x2="548" y2="64" stroke="#2563eb" stroke-width="2.2"/>
<text x="554" y="68" fill="#333">smoothutf8 (default)</text>
<polyline points="56.0,248.9 73.2,213.9 90.4,179.2 107.6,184.5 124.7,159.2 141.9,123.6 159.1,96.2 176.3,92.0 193.5,76.9 210.7,59.5 227.9,45.1 245.0,40.2 262.2,36.2 279.4,35.2 296.6,37.8 313.8,29.2 331.0,35.0 348.1,34.2 365.3,33.8 382.5,33.7 399.7,56.4 416.9,66.7 434.1,88.4 451.3,88.5 468.4,88.7 485.6,88.5 502.8,88.7 520.0,102.7 537.2,118.3 554.4,123.7" fill="none" stroke="#dc2626" stroke-width="2.2"/>
<line x1="530" y1="82" x2="548" y2="82" stroke="#dc2626" stroke-width="2.2"/>
<text x="554" y="86" fill="#333">smoothutf8 (+simdutf8)</text>
</svg>
