<svg xmlns="http://www.w3.org/2000/svg" width="720" height="320" viewBox="0 0 720 320" font-family="system-ui,sans-serif" font-size="11">
<rect width="720" height="320" fill="#ffffff"/>
<line x1="56" y1="251.3" x2="520" y2="251.3" stroke="#374151" stroke-width="1.2"/>
<text x="50" y="254.3" text-anchor="end" fill="#666">1×</text>
<line x1="56" y1="201.5" x2="520" y2="201.5" stroke="#ececec" stroke-width="1"/>
<text x="50" y="204.5" text-anchor="end" fill="#666">1.5×</text>
<line x1="56" y1="166.3" x2="520" y2="166.3" stroke="#ececec" stroke-width="1"/>
<text x="50" y="169.3" text-anchor="end" fill="#666">2×</text>
<line x1="56" y1="116.6" x2="520" y2="116.6" stroke="#ececec" stroke-width="1"/>
<text x="50" y="119.6" text-anchor="end" fill="#666">3×</text>
<line x1="56" y1="81.3" x2="520" y2="81.3" stroke="#ececec" stroke-width="1"/>
<text x="50" y="84.3" text-anchor="end" fill="#666">4×</text>
<line x1="56" y1="31.6" x2="520" y2="31.6" stroke="#ececec" stroke-width="1"/>
<text x="50" y="34.6" text-anchor="end" fill="#666">6×</text>
<line x1="56.0" y1="20" x2="56.0" y2="270" stroke="#f5f5f5" stroke-width="1"/>
<text x="56.0" y="286" text-anchor="middle" fill="#666">1B</text>
<line x1="124.7" y1="20" x2="124.7" y2="270" stroke="#f5f5f5" stroke-width="1"/>
<text x="124.7" y="286" text-anchor="middle" fill="#666">16B</text>
<line x1="193.5" y1="20" x2="193.5" y2="270" stroke="#f5f5f5" stroke-width="1"/>
<text x="193.5" y="286" text-anchor="middle" fill="#666">256B</text>
<line x1="262.2" y1="20" x2="262.2" y2="270" stroke="#f5f5f5" stroke-width="1"/>
<text x="262.2" y="286" text-anchor="middle" fill="#666">4K</text>
<line x1="331.0" y1="20" x2="331.0" y2="270" stroke="#f5f5f5" stroke-width="1"/>
<text x="331.0" y="286" text-anchor="middle" fill="#666">64K</text>
<line x1="399.7" y1="20" x2="399.7" y2="270" stroke="#f5f5f5" stroke-width="1"/>
<text x="399.7" y="286" text-anchor="middle" fill="#666">1M</text>
<line x1="468.4" y1="20" x2="468.4" y2="270" stroke="#f5f5f5" stroke-width="1"/>
<text x="468.4" y="286" text-anchor="middle" fill="#666">16M</text>
<line x1="520.0" y1="20" x2="520.0" y2="270" stroke="#f5f5f5" stroke-width="1"/>
<text x="520.0" y="286" text-anchor="middle" fill="#666">128M</text>
<text x="288.0" y="312" text-anchor="middle" fill="#333" font-size="12">input size (bytes, log scale)</text>
<text x="14" y="145.0" text-anchor="middle" fill="#333" font-size="12" transform="rotate(-90 14 145.0)">speedup vs core::str::from_utf8</text>
<polyline points="56.0,251.3 73.2,251.3 90.4,251.3 107.6,251.3 124.7,251.3 141.9,251.3 159.1,251.3 176.3,251.3 193.5,251.3 210.7,251.3 227.9,251.3 245.0,251.3 262.2,251.3 279.4,251.3 296.6,251.3 313.8,251.3 331.0,251.3 348.1,251.3 365.3,251.3 382.5,251.3 399.7,251.3 416.9,251.3 434.1,251.3 451.3,251.3 468.4,251.3 485.6,251.3 502.8,251.3 520.0,251.3 537.2,251.3 554.4,251.3" fill="none" stroke="#9ca3af" stroke-width="2.2"/>
<line x1="530" y1="28" x2="548" y2="28" stroke="#9ca3af" stroke-width="2.2"/>
<text x="554" y="32" fill="#333">stdlib (= 1×)</text>
<polyline points="56.0,252.9 73.2,250.0 90.4,257.1 107.6,248.1 124.7,240.8 141.9,242.3 159.1,120.8 176.3,154.5 193.5,188.4 210.7,180.4 227.9,168.9 245.0,168.9 262.2,148.2 279.4,156.7 296.6,169.0 313.8,167.1 331.0,188.5 348.1,188.9 365.3,188.2 382.5,189.3 399.7,189.8 416.9,194.4 434.1,232.4 451.3,232.5 468.4,232.8 485.6,232.3 502.8,229.5 520.0,198.9 537.2,205.4 554.4,210.2" fill="none" stroke="#f59e0b" stroke-width="2.2"/>
<line x1="530" y1="46" x2="548" y2="46" stroke="#f59e0b" stroke-width="2.2"/>
<text x="554" y="50" fill="#333">simdutf8</text>
<polyline points="56.0,120.6 73.2,102.9 90.4,53.2 107.6,31.7 124.7,127.4 141.9,122.5 159.1,155.4 176.3,179.7 193.5,233.2 210.7,228.3 227.9,236.8 245.0,243.3 262.2,249.2 279.4,250.0 296.6,251.0 313.8,251.5 331.0,248.5 348.1,250.0 365.3,248.9 382.5,249.7 399.7,250.6 416.9,248.8 434.1,250.1 451.3,250.8 468.4,250.9 485.6,250.0 502.8,250.0 520.0,249.6 537.2,250.0 554.4,251.3" fill="none" stroke="#2563eb" stroke-width="2.2"/>
<line x1="530" y1="64" x2="548" y2="64" stroke="#2563eb" stroke-width="2.2"/>
<text x="554" y="68" fill="#333">smoothutf8 (default)</text>
<polyline points="56.0,184.5 73.2,167.6 90.4,114.7 107.6,179.3 124.7,241.6 141.9,191.0 159.1,150.8 176.3,164.6 193.5,195.7 210.7,185.4 227.9,173.1 245.0,170.6 262.2,150.0 279.4,157.0 296.6,169.4 313.8,167.3 331.0,188.7 348.1,189.1 365.3,189.3 382.5,189.4 399.7,189.9 416.9,194.1 434.1,232.0 451.3,232.2 468.4,232.2 485.6,232.3 502.8,228.9 520.0,198.6 537.2,204.6 554.4,209.8" fill="none" stroke="#dc2626" stroke-width="2.2"/>
<line x1="530" y1="82" x2="548" y2="82" stroke="#dc2626" stroke-width="2.2"/>
<text x="554" y="86" fill="#333">smoothutf8 (+simdutf8)</text>
</svg>
